<svg width="960" height="540" viewBox="0 0 960 540" xmlns="http://www.w3.org/2000/svg"><mask id="satori_om-id"><rect x="0" y="0" width="960" height="540" fill="#fff"/></mask><path fill="#3385FF" d="M106.9 275.3L97.6 275.3L97.6 255.0L80.7 224.9L91.2 224.9L102.3 245.8L113.4 224.9L123.7 224.9L106.9 255.0L106.9 275.3ZM136.8 276.1L136.8 276.1Q131.4 276.1 127.2 273.8Q123.0 271.4 120.6 267.2Q118.2 262.9 118.2 257.4L118.2 257.4Q118.2 251.6 120.8 247.4Q123.3 243.1 127.6 240.9Q131.9 238.7 137.1 238.7L137.1 238.7Q142.5 238.7 146.7 241.0Q151.0 243.4 153.5 247.5Q156.0 251.7 156.0 257.4L156.0 257.4Q156.0 262.8 153.5 267.1Q151.1 271.3 146.8 273.7Q142.5 276.1 136.8 276.1ZM137.0 268.1L137.0 268.1Q139.8 268.1 142.0 266.7Q144.1 265.2 145.3 262.7Q146.5 260.2 146.5 257.3L146.5 257.3Q146.5 253.9 145.2 251.5Q143.9 249.1 141.7 247.9Q139.5 246.7 137.0 246.7L137.0 246.7Q134.1 246.7 132.0 248.0Q129.9 249.4 128.7 251.8Q127.5 254.2 127.5 257.4L127.5 257.4Q127.5 260.6 128.8 263.0Q130.0 265.5 132.2 266.8Q134.4 268.1 137.0 268.1ZM175.3 276.1L175.3 276.1Q170.6 276.1 167.4 274.1Q164.2 272.2 162.4 268.7Q160.7 265.2 160.7 260.7L160.7 260.7L160.7 239.5L169.9 239.5L169.9 259.3Q169.9 263.3 171.9 265.8Q174.0 268.3 177.9 268.3L177.9 268.3Q182.0 268.3 184.0 265.9Q186.1 263.5 186.1 259.3L186.1 259.3L186.1 239.5L195.3 239.5L195.3 275.3L186.1 275.3L186.1 271.1Q184.3 273.5 181.3 274.8Q178.4 276.1 175.3 276.1ZM210.9 275.3L201.8 275.3L201.8 239.5L210.9 239.5L210.9 244.9Q212.8 241.9 215.6 240.3Q218.5 238.7 222.1 238.7L222.1 238.7L222.1 248.3L219.6 248.3Q215.2 248.3 213.1 250.4Q210.9 252.5 210.9 257.4L210.9 257.4L210.9 275.3Z M262.2 276.1L262.2 276.1Q259.0 276.1 256.3 274.8Q253.5 273.5 251.8 271.1Q250.1 268.7 250.1 265.4L250.1 265.4Q250.1 261.4 252.1 258.9Q254.0 256.4 257.4 255.2Q260.9 253.9 265.1 253.9L265.1 253.9L273.6 253.9Q273.6 251.5 272.9 249.8Q272.1 248.2 270.6 247.3Q269.1 246.4 267.0 246.4L267.0 246.4Q264.5 246.4 262.5 247.5Q260.5 248.6 260.1 251.2L260.1 251.2L250.9 251.2Q251.2 247.3 253.5 244.5Q255.8 241.7 259.4 240.2Q263.0 238.7 267.1 238.7L267.1 238.7Q272.2 238.7 275.7 240.6Q279.2 242.4 281.0 245.8Q282.9 249.3 282.9 253.9L282.9 253.9L282.9 264.8Q283.0 266.4 284.0 267.0Q285.1 267.6 286.7 267.6L286.7 267.6L286.7 275.3Q283.3 275.3 281.1 274.6Q278.8 274.0 277.4 272.7Q275.9 271.4 274.9 269.5L274.9 269.5Q273.2 272.3 269.8 274.2Q266.3 276.1 262.2 276.1ZM264.8 268.7L264.8 268.7Q267.2 268.7 269.2 267.6Q271.2 266.5 272.4 264.6Q273.6 262.7 273.6 260.1L273.6 260.1L273.6 259.9L265.7 259.9Q264.1 259.9 262.7 260.3Q261.2 260.8 260.4 261.8Q259.5 262.7 259.5 264.4L259.5 264.4Q259.5 266.6 261.0 267.7Q262.6 268.7 264.8 268.7ZM300.3 275.3L291.2 275.3L291.2 239.5L300.3 239.5L300.3 243.7Q302.2 241.2 305.3 239.9Q308.5 238.7 311.6 238.7L311.6 238.7Q317.8 238.7 321.8 242.7Q325.7 246.7 325.7 254.2L325.7 254.2L325.7 275.3L316.6 275.3L316.6 255.5Q316.6 251.4 314.5 248.9Q312.5 246.5 308.5 246.5L308.5 246.5Q304.6 246.5 302.4 248.9Q300.3 251.4 300.3 255.5L300.3 255.5L300.3 275.3ZM336.6 234.9L336.6 234.9Q334.2 234.9 332.4 233.2Q330.6 231.4 330.6 229.0L330.6 229.0Q330.6 226.4 332.4 224.7Q334.2 223.0 336.6 223.0L336.6 223.0Q339.1 223.0 340.9 224.7Q342.6 226.4 342.6 229.0L342.6 229.0Q342.6 231.4 340.9 233.2Q339.1 234.9 336.6 234.9ZM341.2 275.3L332.0 275.3L332.0 239.5L341.2 239.5L341.2 275.3ZM357.1 275.3L348.0 275.3L348.0 239.5L357.1 239.5L357.1 243.7Q358.9 241.1 361.7 239.9Q364.5 238.7 367.6 238.7L367.6 238.7Q371.7 238.7 375.2 240.4Q378.7 242.1 380.6 245.7L380.6 245.7Q382.4 242.4 385.6 240.5Q388.8 238.7 392.6 238.7L392.6 238.7Q396.7 238.7 400.1 240.4Q403.4 242.1 405.4 245.5Q407.3 249.0 407.3 254.2L407.3 254.2L407.3 275.3L398.2 275.3L398.2 255.5Q398.2 251.4 396.2 249.1Q394.3 246.7 390.2 246.7L390.2 246.7Q386.3 246.7 384.3 249.1Q382.3 251.4 382.3 255.5L382.3 255.5L382.3 275.3L373.1 275.3L373.1 255.5Q373.1 251.4 371.1 249.0Q369.0 246.7 365.2 246.7L365.2 246.7Q362.0 246.7 359.5 248.7Q357.1 250.8 357.1 255.5L357.1 255.5L357.1 275.3ZM424.2 276.1L424.2 276.1Q421.0 276.1 418.3 274.8Q415.5 273.5 413.8 271.1Q412.1 268.7 412.1 265.4L412.1 265.4Q412.1 261.4 414.1 258.9Q416.0 256.4 419.4 255.2Q422.9 253.9 427.1 253.9L427.1 253.9L435.6 253.9Q435.6 251.5 434.9 249.8Q434.1 248.2 432.6 247.3Q431.1 246.4 429.0 246.4L429.0 246.4Q426.5 246.4 424.5 247.5Q422.5 248.6 422.1 251.2L422.1 251.2L412.9 251.2Q413.2 247.3 415.5 244.5Q417.8 241.7 421.4 240.2Q425.0 238.7 429.1 238.7L429.1 238.7Q434.2 238.7 437.7 240.6Q441.2 242.4 443.0 245.8Q444.9 249.3 444.9 253.9L444.9 253.9L444.9 264.8Q445.0 266.4 446.0 267.0Q447.1 267.6 448.7 267.6L448.7 267.6L448.7 275.3Q445.3 275.3 443.1 274.6Q440.8 274.0 439.4 272.7Q437.9 271.4 436.9 269.5L436.9 269.5Q435.2 272.3 431.8 274.2Q428.3 276.1 424.2 276.1ZM426.8 268.7L426.8 268.7Q429.2 268.7 431.2 267.6Q433.2 266.5 434.4 264.6Q435.6 262.7 435.6 260.1L435.6 260.1L435.6 259.9L427.7 259.9Q426.1 259.9 424.7 260.3Q423.2 260.8 422.4 261.8Q421.5 262.7 421.5 264.4L421.5 264.4Q421.5 266.6 423.0 267.7Q424.6 268.7 426.8 268.7ZM462.3 275.3L453.2 275.3L453.2 239.5L462.3 239.5L462.3 243.7Q464.2 241.2 467.3 239.9Q470.5 238.7 473.6 238.7L473.6 238.7Q479.8 238.7 483.8 242.7Q487.7 246.7 487.7 254.2L487.7 254.2L487.7 275.3L478.6 275.3L478.6 255.5Q478.6 251.4 476.5 248.9Q474.5 246.5 470.5 246.5L470.5 246.5Q466.6 246.5 464.4 248.9Q462.3 251.4 462.3 255.5L462.3 255.5L462.3 275.3ZM508.8 292.0L508.8 292.0Q503.9 292.0 500.0 290.9Q496.2 289.8 493.9 287.4Q491.6 285.0 491.6 281.1L491.6 281.1Q491.6 278.6 492.7 276.7Q493.8 274.9 496.0 273.5L496.0 273.5Q494.1 272.5 493.2 270.8Q492.3 269.1 492.3 267.0L492.3 267.0Q492.3 262.2 496.7 259.6L496.7 259.6Q495.2 258.0 494.3 255.9Q493.4 253.7 493.4 251.4L493.4 251.4Q493.4 247.5 495.3 244.7Q497.2 241.9 500.5 240.3Q503.8 238.7 508.0 238.7L508.0 238.7Q511.1 238.7 513.7 239.5L513.7 239.5L526.5 239.5L526.5 246.5L521.6 246.5Q522.0 247.7 522.3 248.9Q522.7 250.1 522.7 251.4L522.7 251.4Q522.7 255.2 520.7 258.1Q518.8 260.9 515.5 262.6Q512.2 264.2 508.0 264.2L508.0 264.2Q506.2 264.2 504.7 263.8Q503.2 263.5 501.8 262.8L501.8 262.8Q500.2 263.6 500.2 265.3L500.2 265.3Q500.2 268.5 505.4 268.5L505.4 268.5L512 268.5Q516.3 268.5 519.4 269.7Q522.4 270.9 524.0 273.4Q525.6 275.9 525.6 279.8L525.6 279.8Q525.6 283.5 523.4 286.3Q521.1 289.0 517.3 290.5Q513.5 292.0 508.8 292.0ZM508.8 284.8L508.8 284.8Q512.3 284.8 514.7 283.6Q517.1 282.5 517.1 280.3L517.1 280.3Q517.1 276.1 511.2 276.1L511.2 276.1L506.0 276.1Q503.1 276.1 501.6 277.1Q500.0 278.2 500.0 280.3L500.0 280.3Q500.0 282.0 501.3 282.9Q502.5 283.9 504.5 284.3Q506.5 284.8 508.8 284.8ZM508.0 257.0L508.0 257.0Q510.7 257.0 512.5 255.4Q514.2 253.9 514.2 251.4L514.2 251.4Q514.2 249.1 512.5 247.5Q510.7 245.9 508.0 245.9L508.0 245.9Q505.2 245.9 503.5 247.5Q501.8 249.1 501.8 251.4L501.8 251.4Q501.8 253.9 503.5 255.4Q505.1 257.0 508.0 257.0ZM541.2 276.1L541.2 276.1Q538.1 276.1 535.3 274.8Q532.6 273.5 530.9 271.1Q529.2 268.7 529.2 265.4L529.2 265.4Q529.2 261.4 531.2 258.9Q533.1 256.4 536.5 255.2Q539.9 253.9 544.2 253.9L544.2 253.9L552.7 253.9Q552.7 251.5 551.9 249.8Q551.2 248.2 549.7 247.3Q548.2 246.4 546.1 246.4L546.1 246.4Q543.5 246.4 541.6 247.5Q539.6 248.6 539.1 251.2L539.1 251.2L529.9 251.2Q530.3 247.3 532.6 244.5Q534.9 241.7 538.5 240.2Q542.1 238.7 546.2 238.7L546.2 238.7Q551.2 238.7 554.7 240.6Q558.2 242.4 560.1 245.8Q562.0 249.3 562.0 253.9L562.0 253.9L562.0 264.8Q562.1 266.4 563.1 267.0Q564.1 267.6 565.8 267.6L565.8 267.6L565.8 275.3Q562.4 275.3 560.1 274.6Q557.9 274.0 556.4 272.7Q555.0 271.4 554.0 269.5L554.0 269.5Q552.3 272.3 548.8 274.2Q545.3 276.1 541.2 276.1ZM543.9 268.7L543.9 268.7Q546.3 268.7 548.3 267.6Q550.2 266.5 551.5 264.6Q552.7 262.7 552.7 260.1L552.7 260.1L552.7 259.9L544.8 259.9Q543.2 259.9 541.7 260.3Q540.3 260.8 539.4 261.8Q538.6 262.7 538.6 264.4L538.6 264.4Q538.6 266.6 540.1 267.7Q541.7 268.7 543.9 268.7Z M597.3 291.1L588.1 291.1L588.1 239.5L597.2 239.5L597.2 244.5Q599.3 241.6 602.5 240.2Q605.6 238.7 609.3 238.7L609.3 238.7Q614.5 238.7 618.2 241.2Q621.9 243.7 623.9 247.9Q625.8 252.1 625.8 257.3L625.8 257.3Q625.8 262.4 623.8 266.7Q621.8 271.0 618.1 273.6Q614.4 276.1 609.3 276.1L609.3 276.1Q604.7 276.1 601.7 274.3Q598.8 272.4 597.3 270.4L597.3 270.4L597.3 291.1ZM606.8 268.1L606.8 268.1Q609.7 268.1 611.9 266.6Q614.0 265.1 615.2 262.7Q616.5 260.2 616.5 257.3L616.5 257.3Q616.5 253.9 615.1 251.5Q613.8 249.2 611.6 248.0Q609.4 246.7 606.8 246.7L606.8 246.7Q604.1 246.7 601.9 248.1Q599.8 249.5 598.5 251.9Q597.2 254.3 597.2 257.4L597.2 257.4Q597.2 260.4 598.5 262.8Q599.7 265.3 601.9 266.7Q604.0 268.1 606.8 268.1ZM640.0 275.3L630.8 275.3L630.8 224.9L640.0 224.9L640.0 275.3ZM657.5 276.1L657.5 276.1Q654.3 276.1 651.6 274.8Q648.9 273.5 647.2 271.1Q645.5 268.7 645.5 265.4L645.5 265.4Q645.5 261.4 647.4 258.9Q649.4 256.4 652.8 255.2Q656.2 253.9 660.5 253.9L660.5 253.9L669.0 253.9Q669.0 251.5 668.2 249.8Q667.4 248.2 666.0 247.3Q664.5 246.4 662.3 246.4L662.3 246.4Q659.8 246.4 657.8 247.5Q655.9 248.6 655.4 251.2L655.4 251.2L646.2 251.2Q646.6 247.3 648.9 244.5Q651.2 241.7 654.8 240.2Q658.4 238.7 662.5 238.7L662.5 238.7Q667.5 238.7 671.0 240.6Q674.5 242.4 676.4 245.8Q678.2 249.3 678.2 253.9L678.2 253.9L678.2 264.8Q678.4 266.4 679.4 267.0Q680.4 267.6 682.1 267.6L682.1 267.6L682.1 275.3Q678.7 275.3 676.4 274.6Q674.1 274.0 672.7 272.7Q671.3 271.4 670.3 269.5L670.3 269.5Q668.6 272.3 665.1 274.2Q661.6 276.1 657.5 276.1ZM660.2 268.7L660.2 268.7Q662.6 268.7 664.5 267.6Q666.5 266.5 667.7 264.6Q669.0 262.7 669.0 260.1L669.0 260.1L669.0 259.9L661.0 259.9Q659.5 259.9 658.0 260.3Q656.6 260.8 655.7 261.8Q654.8 262.7 654.8 264.4L654.8 264.4Q654.8 266.6 656.4 267.7Q657.9 268.7 660.2 268.7ZM704.5 275.3L698.8 275.3Q693.0 275.3 690.1 272.5Q687.2 269.6 687.2 264.0L687.2 264.0L687.2 247.3L682.6 247.3L682.6 239.5L687.2 239.5L687.2 230.8L696.4 230.8L696.4 239.5L704.5 239.5L704.5 247.3L696.4 247.3L696.4 264.1Q696.4 266.1 697.5 266.8Q698.6 267.6 700.3 267.6L700.3 267.6L704.5 267.6L704.5 275.3ZM721.6 275.3L712.4 275.3L712.4 247.3L708.2 247.3L708.2 239.5L712.4 239.5L712.4 236.8Q712.4 230.3 715.7 227.6Q718.9 224.9 724.5 224.9L724.5 224.9L727.6 224.9L727.6 232.7L726.0 232.7Q723.6 232.7 722.6 233.6Q721.6 234.6 721.6 236.8L721.6 236.8L721.6 239.5L728.0 239.5L728.0 247.3L721.6 247.3L721.6 275.3ZM749.7 276.1L749.7 276.1Q744.3 276.1 740.1 273.8Q735.8 271.4 733.5 267.2Q731.1 262.9 731.1 257.4L731.1 257.4Q731.1 251.6 733.7 247.4Q736.2 243.1 740.5 240.9Q744.8 238.7 750.0 238.7L750.0 238.7Q755.4 238.7 759.6 241.0Q763.9 243.4 766.3 247.5Q768.8 251.7 768.8 257.4L768.8 257.4Q768.8 262.8 766.4 267.1Q763.9 271.3 759.6 273.7Q755.4 276.1 749.7 276.1ZM749.8 268.1L749.8 268.1Q752.7 268.1 754.8 266.7Q756.9 265.2 758.2 262.7Q759.4 260.2 759.4 257.3L759.4 257.3Q759.4 253.9 758.1 251.5Q756.7 249.1 754.6 247.9Q752.4 246.7 749.8 246.7L749.8 246.7Q747.0 246.7 744.9 248.0Q742.8 249.4 741.6 251.8Q740.4 254.2 740.4 257.4L740.4 257.4Q740.4 260.6 741.6 263.0Q742.9 265.5 745.1 266.8Q747.2 268.1 749.8 268.1ZM783.3 275.3L774.2 275.3L774.2 239.5L783.3 239.5L783.3 244.9Q785.2 241.9 788.0 240.3Q790.9 238.7 794.5 238.7L794.5 238.7L794.5 248.3L792.0 248.3Q787.6 248.3 785.5 250.4Q783.3 252.5 783.3 257.4L783.3 257.4L783.3 275.3ZM807.9 275.3L798.8 275.3L798.8 239.5L807.9 239.5L807.9 243.7Q809.7 241.1 812.5 239.9Q815.3 238.7 818.4 238.7L818.4 238.7Q822.5 238.7 826.0 240.4Q829.4 242.1 831.4 245.7L831.4 245.7Q833.2 242.4 836.4 240.5Q839.6 238.7 843.4 238.7L843.4 238.7Q847.5 238.7 850.9 240.4Q854.2 242.1 856.2 245.5Q858.1 249.0 858.1 254.2L858.1 254.2L858.1 275.3L849.0 275.3L849.0 255.5Q849.0 251.4 847.0 249.1Q845.1 246.7 841.0 246.7L841.0 246.7Q837.1 246.7 835.1 249.1Q833.0 251.4 833.0 255.5L833.0 255.5L833.0 275.3L823.9 275.3L823.9 255.5Q823.9 251.4 821.9 249.0Q819.8 246.7 816.0 246.7L816.0 246.7Q812.7 246.7 810.3 248.7Q807.9 250.8 807.9 255.5L807.9 255.5L807.9 275.3ZM868.9 276.1L868.9 276.1Q866.4 276.1 864.7 274.4Q862.9 272.6 862.9 270.1L862.9 270.1Q862.9 267.6 864.7 265.9Q866.4 264.2 868.9 264.2L868.9 264.2Q871.4 264.2 873.2 265.9Q874.9 267.6 874.9 270.1L874.9 270.1Q874.9 272.6 873.2 274.4Q871.4 276.1 868.9 276.1Z "/></svg>